<svg version="1.1" id="Layer_1" xmlns="http://www.w3.org/2000/svg" xmlns:xlink="http://www.w3.org/1999/xlink" x="0px" y="0px" width="22.3px" height="16px" viewBox="0 0 22.3 16" style="enable-background:new 0 0 22.3 16;" xml:space="preserve">
<path fill="#F9C000" d="M6.6,7.4c0,3.1,3.3,5.6,7.4,5.6c1.3,0,2.4-0.2,3.4-0.6c0.9,0.7,2.1,1.5,3,1.7c0,0-1.2-1.2-1.7-2.3 c1.7-1,2.7-2.6,2.7-4.3c0-3.1-3.3-5.6-7.4-5.6S6.6,4.4,6.6,7.4z"/>
<path fill="#F9C000" d="M8.6,12C7,10.9,6.1,9.2,6.1,7.5c0-1.2,0.5-2.3,1.2-3.3c-0.3,0-0.7-0.1-1-0.1c-3,0-5.5,1.8-5.5,4.1 c0,1.3,0.7,2.4,2,3.2c-0.4,0.8-1.3,1.7-1.3,1.7c0.7-0.1,1.5-0.7,2.2-1.3c0.7,0.3,1.5,0.4,2.5,0.4C7.1,12.4,7.9,12.2,8.6,12z"/></svg>